<?xml version="1.0" encoding="UTF-8"?>
<svg width="350pt" height="350pt" version="1.1" viewBox="0 0 600 600" xmlns="http://www.w3.org/2000/svg">
 <g>
  <path d="m99.215 84.145c0 8.332-6.7539 15.082-15.082 15.082-8.332 0-15.086-6.75-15.086-15.082s6.7539-15.086 15.086-15.086c8.3281 0 15.082 6.7539 15.082 15.086"/>
  <path d="m213.85 84.145c0 8.332-6.7539 15.082-15.082 15.082-8.332 0-15.086-6.75-15.086-15.082s6.7539-15.086 15.086-15.086c8.3281 0 15.082 6.7539 15.082 15.086"/>
  <path d="m328.49 84.145c0 8.332-6.7539 15.082-15.086 15.082-8.3281 0-15.082-6.75-15.082-15.082s6.7539-15.086 15.082-15.086c8.332 0 15.086 6.7539 15.086 15.086"/>
  <path d="m443.12 84.145c0 8.332-6.7539 15.082-15.086 15.082-8.3281 0-15.082-6.75-15.082-15.082s6.7539-15.086 15.082-15.086c8.332 0 15.086 6.7539 15.086 15.086"/>
  <path d="m557.76 84.145c0 8.332-6.7539 15.082-15.086 15.082s-15.082-6.75-15.082-15.082 6.75-15.086 15.082-15.086 15.086 6.7539 15.086 15.086"/>
  <path d="m672.41 84.145c0 8.332-6.75 15.082-15.082 15.082s-15.086-6.75-15.086-15.082 6.7539-15.086 15.086-15.086 15.082 6.7539 15.082 15.086"/>
  <path d="m787.04 84.145c0 8.332-6.7539 15.082-15.082 15.082-8.332 0-15.086-6.75-15.086-15.082s6.7539-15.086 15.086-15.086c8.3281 0 15.082 6.7539 15.082 15.086"/>
  <path d="m901.68 84.145c0 8.332-6.7539 15.082-15.082 15.082-8.332 0-15.086-6.75-15.086-15.082s6.7539-15.086 15.086-15.086c8.3281 0 15.082 6.7539 15.082 15.086"/>
  <path d="m1016.3 84.145c0 8.332-6.7539 15.082-15.086 15.082-8.3281 0-15.082-6.75-15.082-15.082s6.7539-15.086 15.082-15.086c8.332 0 15.086 6.7539 15.086 15.086"/>
  <path d="m1131 84.145c0 8.332-6.7539 15.082-15.086 15.082-8.3281 0-15.082-6.75-15.082-15.082s6.7539-15.086 15.082-15.086c8.332 0 15.086 6.7539 15.086 15.086"/>
  <path d="m99.215 198.77c0 8.3281-6.7539 15.082-15.082 15.082-8.332 0-15.086-6.7539-15.086-15.082 0-8.332 6.7539-15.086 15.086-15.086 8.3281 0 15.082 6.7539 15.082 15.086"/>
  <path d="m213.85 198.77c0 8.3281-6.7539 15.082-15.082 15.082-8.332 0-15.086-6.7539-15.086-15.082 0-8.332 6.7539-15.086 15.086-15.086 8.3281 0 15.082 6.7539 15.082 15.086"/>
  <path d="m328.49 198.77c0 8.3281-6.7539 15.082-15.086 15.082-8.3281 0-15.082-6.7539-15.082-15.082 0-8.332 6.7539-15.086 15.082-15.086 8.332 0 15.086 6.7539 15.086 15.086"/>
  <path d="m443.12 198.77c0 8.3281-6.7539 15.082-15.086 15.082-8.3281 0-15.082-6.7539-15.082-15.082 0-8.332 6.7539-15.086 15.082-15.086 8.332 0 15.086 6.7539 15.086 15.086"/>
  <path d="m557.76 198.77c0 8.3281-6.7539 15.082-15.086 15.082s-15.082-6.7539-15.082-15.082c0-8.332 6.75-15.086 15.082-15.086s15.086 6.7539 15.086 15.086"/>
  <path d="m672.41 198.77c0 8.3281-6.75 15.082-15.082 15.082s-15.086-6.7539-15.086-15.082c0-8.332 6.7539-15.086 15.086-15.086s15.082 6.7539 15.082 15.086"/>
  <path d="m787.04 198.77c0 8.3281-6.7539 15.082-15.082 15.082-8.332 0-15.086-6.7539-15.086-15.082 0-8.332 6.7539-15.086 15.086-15.086 8.3281 0 15.082 6.7539 15.082 15.086"/>
  <path d="m901.68 198.77c0 8.3281-6.7539 15.082-15.082 15.082-8.332 0-15.086-6.7539-15.086-15.082 0-8.332 6.7539-15.086 15.086-15.086 8.3281 0 15.082 6.7539 15.082 15.086"/>
  <path d="m1016.3 198.77c0 8.3281-6.7539 15.082-15.086 15.082-8.3281 0-15.082-6.7539-15.082-15.082 0-8.332 6.7539-15.086 15.082-15.086 8.332 0 15.086 6.7539 15.086 15.086"/>
  <path d="m1131 198.77c0 8.3281-6.7539 15.082-15.086 15.082-8.3281 0-15.082-6.7539-15.082-15.082 0-8.332 6.7539-15.086 15.082-15.086 8.332 0 15.086 6.7539 15.086 15.086"/>
  <path d="m99.215 313.4c0 8.332-6.7539 15.086-15.082 15.086-8.332 0-15.086-6.7539-15.086-15.086 0-8.3281 6.7539-15.082 15.086-15.082 8.3281 0 15.082 6.7539 15.082 15.082"/>
  <path d="m213.85 313.4c0 8.332-6.7539 15.086-15.082 15.086-8.332 0-15.086-6.7539-15.086-15.086 0-8.3281 6.7539-15.082 15.086-15.082 8.3281 0 15.082 6.7539 15.082 15.082"/>
  <path d="m328.49 313.4c0 8.332-6.7539 15.086-15.086 15.086-8.3281 0-15.082-6.7539-15.082-15.086 0-8.3281 6.7539-15.082 15.082-15.082 8.332 0 15.086 6.7539 15.086 15.082"/>
  <path d="m443.12 313.4c0 8.332-6.7539 15.086-15.086 15.086-8.3281 0-15.082-6.7539-15.082-15.086 0-8.3281 6.7539-15.082 15.082-15.082 8.332 0 15.086 6.7539 15.086 15.082"/>
  <path d="m557.76 313.4c0 8.332-6.7539 15.086-15.086 15.086s-15.082-6.7539-15.082-15.086c0-8.3281 6.75-15.082 15.082-15.082s15.086 6.7539 15.086 15.082"/>
  <path d="m672.41 313.4c0 8.332-6.75 15.086-15.082 15.086s-15.086-6.7539-15.086-15.086c0-8.3281 6.7539-15.082 15.086-15.082s15.082 6.7539 15.082 15.082"/>
  <path d="m787.04 313.4c0 8.332-6.7539 15.086-15.082 15.086-8.332 0-15.086-6.7539-15.086-15.086 0-8.3281 6.7539-15.082 15.086-15.082 8.3281 0 15.082 6.7539 15.082 15.082"/>
  <path d="m901.68 313.4c0 8.332-6.7539 15.086-15.082 15.086-8.332 0-15.086-6.7539-15.086-15.086 0-8.3281 6.7539-15.082 15.086-15.082 8.3281 0 15.082 6.7539 15.082 15.082"/>
  <path d="m1016.3 313.4c0 8.332-6.7539 15.086-15.086 15.086-8.3281 0-15.082-6.7539-15.082-15.086 0-8.3281 6.7539-15.082 15.082-15.082 8.332 0 15.086 6.7539 15.086 15.082"/>
  <path d="m1131 313.4c0 8.332-6.7539 15.086-15.086 15.086-8.3281 0-15.082-6.7539-15.082-15.086 0-8.3281 6.7539-15.082 15.082-15.082 8.332 0 15.086 6.7539 15.086 15.082"/>
  <path d="m99.215 428.04c0 8.332-6.7539 15.086-15.082 15.086-8.332 0-15.086-6.7539-15.086-15.086 0-8.3281 6.7539-15.082 15.086-15.082 8.3281 0 15.082 6.7539 15.082 15.082"/>
  <path d="m213.85 428.04c0 8.332-6.7539 15.086-15.082 15.086-8.332 0-15.086-6.7539-15.086-15.086 0-8.3281 6.7539-15.082 15.086-15.082 8.3281 0 15.082 6.7539 15.082 15.082"/>
  <path d="m328.49 428.04c0 8.332-6.7539 15.086-15.086 15.086-8.3281 0-15.082-6.7539-15.082-15.086 0-8.3281 6.7539-15.082 15.082-15.082 8.332 0 15.086 6.7539 15.086 15.082"/>
  <path d="m443.12 428.04c0 8.332-6.7539 15.086-15.086 15.086-8.3281 0-15.082-6.7539-15.082-15.086 0-8.3281 6.7539-15.082 15.082-15.082 8.332 0 15.086 6.7539 15.086 15.082"/>
  <path d="m557.76 428.04c0 8.332-6.7539 15.086-15.086 15.086s-15.082-6.7539-15.082-15.086c0-8.3281 6.75-15.082 15.082-15.082s15.086 6.7539 15.086 15.082"/>
  <path d="m672.41 428.04c0 8.332-6.75 15.086-15.082 15.086s-15.086-6.7539-15.086-15.086c0-8.3281 6.7539-15.082 15.086-15.082s15.082 6.7539 15.082 15.082"/>
  <path d="m787.04 428.04c0 8.332-6.7539 15.086-15.082 15.086-8.332 0-15.086-6.7539-15.086-15.086 0-8.3281 6.7539-15.082 15.086-15.082 8.3281 0 15.082 6.7539 15.082 15.082"/>
  <path d="m901.68 428.04c0 8.332-6.7539 15.086-15.082 15.086-8.332 0-15.086-6.7539-15.086-15.086 0-8.3281 6.7539-15.082 15.086-15.082 8.3281 0 15.082 6.7539 15.082 15.082"/>
  <path d="m1016.3 428.04c0 8.332-6.7539 15.086-15.086 15.086-8.3281 0-15.082-6.7539-15.082-15.086 0-8.3281 6.7539-15.082 15.082-15.082 8.332 0 15.086 6.7539 15.086 15.082"/>
  <path d="m1131 428.04c0 8.332-6.7539 15.086-15.086 15.086-8.3281 0-15.082-6.7539-15.082-15.086 0-8.3281 6.7539-15.082 15.082-15.082 8.332 0 15.086 6.7539 15.086 15.082"/>
  <path d="m99.215 542.69c0 8.332-6.7539 15.086-15.082 15.086-8.332 0-15.086-6.7539-15.086-15.086s6.7539-15.082 15.086-15.082c8.3281 0 15.082 6.75 15.082 15.082"/>
  <path d="m213.85 542.69c0 8.332-6.7539 15.086-15.082 15.086-8.332 0-15.086-6.7539-15.086-15.086s6.7539-15.082 15.086-15.082c8.3281 0 15.082 6.75 15.082 15.082"/>
  <path d="m328.49 542.69c0 8.332-6.7539 15.086-15.086 15.086-8.3281 0-15.082-6.7539-15.082-15.086s6.7539-15.082 15.082-15.082c8.332 0 15.086 6.75 15.086 15.082"/>
  <path d="m443.12 542.69c0 8.332-6.7539 15.086-15.086 15.086-8.3281 0-15.082-6.7539-15.082-15.086s6.7539-15.082 15.082-15.082c8.332 0 15.086 6.75 15.086 15.082"/>
  <path d="m557.76 542.69c0 8.332-6.7539 15.086-15.086 15.086s-15.082-6.7539-15.082-15.086 6.75-15.082 15.082-15.082 15.086 6.75 15.086 15.082"/>
  <path d="m672.41 542.69c0 8.332-6.75 15.086-15.082 15.086s-15.086-6.7539-15.086-15.086 6.7539-15.082 15.086-15.082 15.082 6.75 15.082 15.082"/>
  <path d="m787.04 542.69c0 8.332-6.7539 15.086-15.082 15.086-8.332 0-15.086-6.7539-15.086-15.086s6.7539-15.082 15.086-15.082c8.3281 0 15.082 6.75 15.082 15.082"/>
  <path d="m901.68 542.69c0 8.332-6.7539 15.086-15.082 15.086-8.332 0-15.086-6.7539-15.086-15.086s6.7539-15.082 15.086-15.082c8.3281 0 15.082 6.75 15.082 15.082"/>
  <path d="m1016.3 542.69c0 8.332-6.7539 15.086-15.086 15.086-8.3281 0-15.082-6.7539-15.082-15.086s6.7539-15.082 15.082-15.082c8.332 0 15.086 6.75 15.086 15.082"/>
  <path d="m1131 542.69c0 8.332-6.7539 15.086-15.086 15.086-8.3281 0-15.082-6.7539-15.082-15.086s6.7539-15.082 15.082-15.082c8.332 0 15.086 6.75 15.086 15.082"/>
  <path d="m99.215 657.31c0 8.332-6.7539 15.082-15.082 15.082-8.332 0-15.086-6.75-15.086-15.082s6.7539-15.086 15.086-15.086c8.3281 0 15.082 6.7539 15.082 15.086"/>
  <path d="m213.85 657.31c0 8.332-6.7539 15.082-15.082 15.082-8.332 0-15.086-6.75-15.086-15.082s6.7539-15.086 15.086-15.086c8.3281 0 15.082 6.7539 15.082 15.086"/>
  <path d="m328.49 657.31c0 8.332-6.7539 15.082-15.086 15.082-8.3281 0-15.082-6.75-15.082-15.082s6.7539-15.086 15.082-15.086c8.332 0 15.086 6.7539 15.086 15.086"/>
  <path d="m443.12 657.31c0 8.332-6.7539 15.082-15.086 15.082-8.3281 0-15.082-6.75-15.082-15.082s6.7539-15.086 15.082-15.086c8.332 0 15.086 6.7539 15.086 15.086"/>
  <path d="m557.76 657.31c0 8.332-6.7539 15.082-15.086 15.082s-15.082-6.75-15.082-15.082 6.75-15.086 15.082-15.086 15.086 6.7539 15.086 15.086"/>
  <path d="m672.41 657.31c0 8.332-6.75 15.082-15.082 15.082s-15.086-6.75-15.086-15.082 6.7539-15.086 15.086-15.086 15.082 6.7539 15.082 15.086"/>
  <path d="m787.04 657.31c0 8.332-6.7539 15.082-15.082 15.082-8.332 0-15.086-6.75-15.086-15.082s6.7539-15.086 15.086-15.086c8.3281 0 15.082 6.7539 15.082 15.086"/>
  <path d="m901.68 657.31c0 8.332-6.7539 15.082-15.082 15.082-8.332 0-15.086-6.75-15.086-15.082s6.7539-15.086 15.086-15.086c8.3281 0 15.082 6.7539 15.082 15.086"/>
  <path d="m1016.3 657.31c0 8.332-6.7539 15.082-15.086 15.082-8.3281 0-15.082-6.75-15.082-15.082s6.7539-15.086 15.082-15.086c8.332 0 15.086 6.7539 15.086 15.086"/>
  <path d="m1131 657.31c0 8.332-6.7539 15.082-15.086 15.082-8.3281 0-15.082-6.75-15.082-15.082s6.7539-15.086 15.082-15.086c8.332 0 15.086 6.7539 15.086 15.086"/>
  <path d="m99.215 771.96c0 8.3281-6.7539 15.082-15.082 15.082-8.332 0-15.086-6.7539-15.086-15.082 0-8.332 6.7539-15.086 15.086-15.086 8.3281 0 15.082 6.7539 15.082 15.086"/>
  <path d="m213.85 771.96c0 8.3281-6.7539 15.082-15.082 15.082-8.332 0-15.086-6.7539-15.086-15.082 0-8.332 6.7539-15.086 15.086-15.086 8.3281 0 15.082 6.7539 15.082 15.086"/>
  <path d="m328.49 771.96c0 8.3281-6.7539 15.082-15.086 15.082-8.3281 0-15.082-6.7539-15.082-15.082 0-8.332 6.7539-15.086 15.082-15.086 8.332 0 15.086 6.7539 15.086 15.086"/>
  <path d="m443.12 771.96c0 8.3281-6.7539 15.082-15.086 15.082-8.3281 0-15.082-6.7539-15.082-15.082 0-8.332 6.7539-15.086 15.082-15.086 8.332 0 15.086 6.7539 15.086 15.086"/>
  <path d="m557.76 771.96c0 8.3281-6.7539 15.082-15.086 15.082s-15.082-6.7539-15.082-15.082c0-8.332 6.75-15.086 15.082-15.086s15.086 6.7539 15.086 15.086"/>
  <path d="m672.41 771.96c0 8.3281-6.75 15.082-15.082 15.082s-15.086-6.7539-15.086-15.082c0-8.332 6.7539-15.086 15.086-15.086s15.082 6.7539 15.082 15.086"/>
  <path d="m787.04 771.96c0 8.3281-6.7539 15.082-15.082 15.082-8.332 0-15.086-6.7539-15.086-15.082 0-8.332 6.7539-15.086 15.086-15.086 8.3281 0 15.082 6.7539 15.082 15.086"/>
  <path d="m901.68 771.96c0 8.3281-6.7539 15.082-15.082 15.082-8.332 0-15.086-6.7539-15.086-15.082 0-8.332 6.7539-15.086 15.086-15.086 8.3281 0 15.082 6.7539 15.082 15.086"/>
  <path d="m1016.3 771.96c0 8.3281-6.7539 15.082-15.086 15.082-8.3281 0-15.082-6.7539-15.082-15.082 0-8.332 6.7539-15.086 15.082-15.086 8.332 0 15.086 6.7539 15.086 15.086"/>
  <path d="m1131 771.96c0 8.3281-6.7539 15.082-15.086 15.082-8.3281 0-15.082-6.7539-15.082-15.082 0-8.332 6.7539-15.086 15.082-15.086 8.332 0 15.086 6.7539 15.086 15.086"/>
  <path d="m99.215 886.6c0 8.3281-6.7539 15.082-15.082 15.082-8.332 0-15.086-6.7539-15.086-15.082 0-8.332 6.7539-15.086 15.086-15.086 8.3281 0 15.082 6.7539 15.082 15.086"/>
  <path d="m213.85 886.6c0 8.3281-6.7539 15.082-15.082 15.082-8.332 0-15.086-6.7539-15.086-15.082 0-8.332 6.7539-15.086 15.086-15.086 8.3281 0 15.082 6.7539 15.082 15.086"/>
  <path d="m328.49 886.6c0 8.3281-6.7539 15.082-15.086 15.082-8.3281 0-15.082-6.7539-15.082-15.082 0-8.332 6.7539-15.086 15.082-15.086 8.332 0 15.086 6.7539 15.086 15.086"/>
  <path d="m443.12 886.6c0 8.3281-6.7539 15.082-15.086 15.082-8.3281 0-15.082-6.7539-15.082-15.082 0-8.332 6.7539-15.086 15.082-15.086 8.332 0 15.086 6.7539 15.086 15.086"/>
  <path d="m557.76 886.6c0 8.3281-6.7539 15.082-15.086 15.082s-15.082-6.7539-15.082-15.082c0-8.332 6.75-15.086 15.082-15.086s15.086 6.7539 15.086 15.086"/>
  <path d="m672.41 886.6c0 8.3281-6.75 15.082-15.082 15.082s-15.086-6.7539-15.086-15.082c0-8.332 6.7539-15.086 15.086-15.086s15.082 6.7539 15.082 15.086"/>
  <path d="m787.04 886.6c0 8.3281-6.7539 15.082-15.082 15.082-8.332 0-15.086-6.7539-15.086-15.082 0-8.332 6.7539-15.086 15.086-15.086 8.3281 0 15.082 6.7539 15.082 15.086"/>
  <path d="m901.68 886.6c0 8.3281-6.7539 15.082-15.082 15.082-8.332 0-15.086-6.7539-15.086-15.082 0-8.332 6.7539-15.086 15.086-15.086 8.3281 0 15.082 6.7539 15.082 15.086"/>
  <path d="m1016.3 886.6c0 8.3281-6.7539 15.082-15.086 15.082-8.3281 0-15.082-6.7539-15.082-15.082 0-8.332 6.7539-15.086 15.082-15.086 8.332 0 15.086 6.7539 15.086 15.086"/>
  <path d="m1131 886.6c0 8.3281-6.7539 15.082-15.086 15.082-8.3281 0-15.082-6.7539-15.082-15.082 0-8.332 6.7539-15.086 15.082-15.086 8.332 0 15.086 6.7539 15.086 15.086"/>
  <path d="m99.215 1001.2c0 8.332-6.7539 15.086-15.082 15.086-8.332 0-15.086-6.7539-15.086-15.086 0-8.3281 6.7539-15.082 15.086-15.082 8.3281 0 15.082 6.7539 15.082 15.082"/>
  <path d="m213.85 1001.2c0 8.332-6.7539 15.086-15.082 15.086-8.332 0-15.086-6.7539-15.086-15.086 0-8.3281 6.7539-15.082 15.086-15.082 8.3281 0 15.082 6.7539 15.082 15.082"/>
  <path d="m328.49 1001.2c0 8.332-6.7539 15.086-15.086 15.086-8.3281 0-15.082-6.7539-15.082-15.086 0-8.3281 6.7539-15.082 15.082-15.082 8.332 0 15.086 6.7539 15.086 15.082"/>
  <path d="m443.12 1001.2c0 8.332-6.7539 15.086-15.086 15.086-8.3281 0-15.082-6.7539-15.082-15.086 0-8.3281 6.7539-15.082 15.082-15.082 8.332 0 15.086 6.7539 15.086 15.082"/>
  <path d="m557.76 1001.2c0 8.332-6.7539 15.086-15.086 15.086s-15.082-6.7539-15.082-15.086c0-8.3281 6.75-15.082 15.082-15.082s15.086 6.7539 15.086 15.082"/>
  <path d="m672.41 1001.2c0 8.332-6.75 15.086-15.082 15.086s-15.086-6.7539-15.086-15.086c0-8.3281 6.7539-15.082 15.086-15.082s15.082 6.7539 15.082 15.082"/>
  <path d="m787.04 1001.2c0 8.332-6.7539 15.086-15.082 15.086-8.332 0-15.086-6.7539-15.086-15.086 0-8.3281 6.7539-15.082 15.086-15.082 8.3281 0 15.082 6.7539 15.082 15.082"/>
  <path d="m901.68 1001.2c0 8.332-6.7539 15.086-15.082 15.086-8.332 0-15.086-6.7539-15.086-15.086 0-8.3281 6.7539-15.082 15.086-15.082 8.3281 0 15.082 6.7539 15.082 15.082"/>
  <path d="m1016.3 1001.2c0 8.332-6.7539 15.086-15.086 15.086-8.3281 0-15.082-6.7539-15.082-15.086 0-8.3281 6.7539-15.082 15.082-15.082 8.332 0 15.086 6.7539 15.086 15.082"/>
  <path d="m1131 1001.2c0 8.332-6.7539 15.086-15.086 15.086-8.3281 0-15.082-6.7539-15.082-15.086 0-8.3281 6.7539-15.082 15.082-15.082 8.332 0 15.086 6.7539 15.086 15.082"/>
  <path d="m99.215 1115.9c0 8.332-6.7539 15.086-15.082 15.086-8.332 0-15.086-6.7539-15.086-15.086s6.7539-15.082 15.086-15.082c8.3281 0 15.082 6.75 15.082 15.082"/>
  <path d="m213.85 1115.9c0 8.332-6.7539 15.086-15.082 15.086-8.332 0-15.086-6.7539-15.086-15.086s6.7539-15.082 15.086-15.082c8.3281 0 15.082 6.75 15.082 15.082"/>
  <path d="m328.49 1115.9c0 8.332-6.7539 15.086-15.086 15.086-8.3281 0-15.082-6.7539-15.082-15.086s6.7539-15.082 15.082-15.082c8.332 0 15.086 6.75 15.086 15.082"/>
  <path d="m443.12 1115.9c0 8.332-6.7539 15.086-15.086 15.086-8.3281 0-15.082-6.7539-15.082-15.086s6.7539-15.082 15.082-15.082c8.332 0 15.086 6.75 15.086 15.082"/>
  <path d="m557.76 1115.9c0 8.332-6.7539 15.086-15.086 15.086s-15.082-6.7539-15.082-15.086 6.75-15.082 15.082-15.082 15.086 6.75 15.086 15.082"/>
  <path d="m672.41 1115.9c0 8.332-6.75 15.086-15.082 15.086s-15.086-6.7539-15.086-15.086 6.7539-15.082 15.086-15.082 15.082 6.75 15.082 15.082"/>
  <path d="m787.04 1115.9c0 8.332-6.7539 15.086-15.082 15.086-8.332 0-15.086-6.7539-15.086-15.086s6.7539-15.082 15.086-15.082c8.3281 0 15.082 6.75 15.082 15.082"/>
  <path d="m901.68 1115.9c0 8.332-6.7539 15.086-15.082 15.086-8.332 0-15.086-6.7539-15.086-15.086s6.7539-15.082 15.086-15.082c8.3281 0 15.082 6.75 15.082 15.082"/>
  <path d="m1016.3 1115.9c0 8.332-6.7539 15.086-15.086 15.086-8.3281 0-15.082-6.7539-15.082-15.086s6.7539-15.082 15.082-15.082c8.332 0 15.086 6.75 15.086 15.082"/>
  <path d="m1131 1115.9c0 8.332-6.7539 15.086-15.086 15.086-8.3281 0-15.082-6.7539-15.082-15.086s6.7539-15.082 15.082-15.082c8.332 0 15.086 6.75 15.086 15.082"/>
 </g>
</svg>
